<?xml version="1.0" encoding="UTF-8"?>
<svg version="1.1" xmlns="http://www.w3.org/2000/svg" viewBox="0 0 100 100">
    <path d="M0 0 C1.56602893 0.00171362 3.13206073 0.00164287 4.6980896 -0.00012207 C7.96795377 0.00152517 11.23712736 0.02011554 14.50683594 0.05175781 C18.68760459 0.09149993 22.86747334 0.09579177 27.04839516 0.08829498 C30.27759982 0.08521916 33.50660401 0.09736638 36.73575974 0.11442566 C38.27704994 0.12143036 39.81836284 0.12458328 41.35966873 0.12373352 C43.51574714 0.12554075 45.67076616 0.1469969 47.82666016 0.17382812 C49.05051422 0.18224731 50.27436829 0.1906665 51.53530884 0.19934082 C57.84726396 0.9395721 61.77912661 3.9023126 65.8984375 8.59375 C68.25128897 12.19889468 68.16343127 15.39492997 68.18896484 19.63793945 C68.19568207 20.33929016 68.20239929 21.04064087 68.20932007 21.76324463 C68.22829055 24.07791261 68.23222397 26.3922904 68.234375 28.70703125 C68.24080443 30.32122414 68.2475329 31.93541587 68.25454712 33.54960632 C68.26651809 36.93308207 68.27022822 40.31645574 68.26904297 43.69995117 C68.26883998 48.02424722 68.29612173 52.3478846 68.33058739 56.67202473 C68.35288627 60.00673903 68.35687958 63.34129568 68.35582352 66.67607689 C68.35817576 68.26960707 68.36697807 69.86314185 68.38248825 71.45659828 C68.40220658 73.69198562 68.3962885 75.92596425 68.38427734 78.16137695 C68.38712738 79.43060501 68.38997742 80.69983307 68.39291382 82.00752258 C67.63735383 87.48727936 65.43472605 91.16987281 61.3359375 94.96875 C57.17144522 97.74507819 53.85679528 97.73279456 48.9519043 97.77075195 C48.24909332 97.77732315 47.54628235 97.78389435 46.82217407 97.79066467 C44.49733367 97.81036792 42.17255777 97.82205345 39.84765625 97.83203125 C38.65495086 97.83814454 38.65495086 97.83814454 37.43815041 97.84438133 C33.2296843 97.86522919 29.02125069 97.87953656 24.81274414 97.88891602 C20.47154596 97.89997911 16.13086053 97.9343811 11.78984356 97.97408772 C8.44661013 98.00026225 5.10349877 98.00860856 1.76017189 98.01219749 C0.16022083 98.01706115 -1.43972486 98.02866894 -3.03957558 98.04723549 C-5.28240978 98.07164656 -7.52391867 98.07065917 -9.7668457 98.0637207 C-11.67854301 98.07252007 -11.67854301 98.07252007 -13.62886047 98.08149719 C-18.85462165 97.34752972 -22.65100446 94.6237141 -25.9140625 90.53125 C-29.1478569 86.18872609 -29.23911837 83.15524499 -29.29443359 77.86254883 C-29.30261108 77.18245758 -29.31078857 76.50236633 -29.31921387 75.80166626 C-29.34401975 73.55138008 -29.3605741 71.30115693 -29.375 69.05078125 C-29.38032368 68.28020575 -29.38564735 67.50963024 -29.39113235 66.71570396 C-29.41784689 62.63461681 -29.43722458 58.55356002 -29.45166016 54.47241211 C-29.46498186 51.10364523 -29.49280309 47.73548661 -29.53369141 44.36694336 C-29.58315473 40.29149954 -29.607798 36.216606 -29.61488724 32.14087486 C-29.62157732 30.59279052 -29.63674079 29.04471737 -29.66077805 27.49680519 C-29.88155092 12.41582278 -29.88155092 12.41582278 -25.66479492 7.13493347 C-25.14892822 6.62634293 -24.63306152 6.11775238 -24.1015625 5.59375 C-23.59165771 5.07883499 -23.08175293 4.56391998 -22.55639648 4.03340149 C-16.12356474 -1.09004399 -7.78360064 -0.09039075 0 0 Z M31.04296875 28.2734375 C29.82316818 28.44626251 28.60336761 28.61908752 27.34660339 28.79714966 C24.77860509 29.16260762 22.21100853 29.53089842 19.64379883 29.90185547 C15.71491232 30.46817706 11.78437159 31.02175289 7.85351562 31.57421875 C5.35405708 31.93152591 2.85470424 32.28957345 0.35546875 32.6484375 C-1.40557442 32.895439 -1.40557442 32.895439 -3.20219421 33.14743042 C-4.8446386 33.38745285 -4.8446386 33.38745285 -6.52026367 33.63232422 C-7.47986496 33.77000214 -8.43946625 33.90768005 -9.42814636 34.04953003 C-14.15638908 35.00129851 -14.15638908 35.00129851 -18.1015625 37.59375 C-18.04754567 45.96635801 -16.83406487 54.3686803 -15.7265625 62.65625 C-15.55592285 64.01218262 -15.55592285 64.01218262 -15.38183594 65.39550781 C-14.73018866 70.03697412 -14.15621234 73.85443726 -11.1015625 77.59375 C-7.61601349 78.75559967 -5.75293297 78.43465201 -2.13305664 77.9128418 C-0.90490738 77.73903488 0.32324188 77.56522797 1.58860779 77.38615417 C2.93021793 77.18878103 4.27177453 76.99104364 5.61328125 76.79296875 C6.98940662 76.59413473 8.3655927 76.39572043 9.74183655 76.19770813 C12.62667307 75.78098547 15.51071111 75.35919273 18.39428711 74.93383789 C22.08616405 74.38966273 25.77971619 73.8580256 29.47395992 73.3301878 C32.31687705 72.92257952 35.15879599 72.50832996 38.00045967 72.09208107 C39.36169463 71.89349654 40.7232307 71.69696471 42.08506584 71.50253868 C43.99120106 71.22938034 45.89590948 70.94632115 47.80053711 70.6628418 C49.42577553 70.42515327 49.42577553 70.42515327 51.08384705 70.18266296 C53.71321512 69.63250515 55.64199465 69.03672751 57.8984375 67.59375 C59.47226881 63.40542769 58.65210502 59.30161005 57.97265625 54.9921875 C57.86500443 54.27390778 57.7573526 53.55562805 57.6464386 52.81558228 C57.41764988 51.30382403 57.18459003 49.79270669 56.94750977 48.28222656 C56.58630108 45.97107632 56.24244049 43.6578045 55.90039062 41.34375 C55.67551092 39.87223779 55.44963355 38.40087762 55.22265625 36.9296875 C55.12047287 36.23902191 55.01828949 35.54835632 54.91300964 34.83676147 C54.36984635 31.44492661 53.83935557 29.5051271 51.8984375 26.59375 C44.89924796 25.97743033 37.96364251 27.27371732 31.04296875 28.2734375 Z " fill="#73A6D8" transform="translate(30.1015625,1.40625)"/>
    <path d="M0 0 C1.53417442 6.34125427 2.45853013 12.50313624 3 19 C-3.6923394 20.57026958 -10.36681638 21.74027733 -17.16796875 22.7265625 C-18.20641434 22.87910492 -19.24485992 23.03164734 -20.31477356 23.18881226 C-22.49532915 23.50809197 -24.67613555 23.82566299 -26.85717773 24.14160156 C-30.18884415 24.6251951 -33.51923563 25.11696719 -36.84960938 25.609375 C-38.97649048 25.91976471 -41.10344132 26.22967707 -43.23046875 26.5390625 C-44.22120895 26.68590485 -45.21194916 26.83274719 -46.23271179 26.98403931 C-50.86253299 27.64852072 -55.30743446 28.18413802 -60 28 C-60.50333542 25.39643759 -61.00279378 22.79223349 -61.5 20.1875 C-61.64308594 19.44951172 -61.78617188 18.71152344 -61.93359375 17.95117188 C-62.50926281 14.92205609 -63 12.090804 -63 9 C-49.34025389 6.76010561 -35.66707139 4.61852475 -21.97454834 2.58920288 C-20.45263309 2.36348048 -18.93086271 2.13677907 -17.40924072 1.90908813 C-15.25633577 1.58740288 -13.10288395 1.26967543 -10.94921875 0.953125 C-9.70487061 0.76911133 -8.46052246 0.58509766 -7.1784668 0.39550781 C-4 0 -4 0 0 0 Z M-36.98046875 10.875 C-38.14384766 11.05546875 -39.30722656 11.2359375 -40.50585938 11.421875 C-42.32827148 11.70804688 -42.32827148 11.70804688 -44.1875 12 C-46.02731445 12.28617188 -46.02731445 12.28617188 -47.90429688 12.578125 C-50.9365184 13.05006609 -53.96839663 13.52410693 -57 14 C-57 14.66 -57 15.32 -57 16 C-47.26571024 14.99337378 -37.59441093 13.98650799 -28 12 C-28 11.34 -28 10.68 -28 10 C-31.10276911 10 -33.91513612 10.39650905 -36.98046875 10.875 Z M-35.1015625 16.875 C-36.31328125 17.05546875 -37.525 17.2359375 -38.7734375 17.421875 C-40.67996094 17.70804688 -40.67996094 17.70804688 -42.625 18 C-44.543125 18.28617188 -44.543125 18.28617188 -46.5 18.578125 C-49.6668621 19.05079098 -52.83351637 19.52480629 -56 20 C-56 20.66 -56 21.32 -56 22 C-45.86295948 21.42358005 -35.98242354 19.76356149 -26 18 C-26.33 17.34 -26.66 16.68 -27 16 C-29.75343715 16 -32.37779838 16.46770817 -35.1015625 16.875 Z " fill="#7FAEDB" transform="translate(81,47)"/>
    <path d="M0 0 C2 3 2 3 2 7 C-9.8096174 9.16263861 -21.64442384 11.05959687 -33.52490234 12.78979492 C-36.28941842 13.19325279 -39.05290869 13.60330196 -41.81640625 14.01367188 C-43.59108818 14.27383106 -45.36582574 14.53361119 -47.140625 14.79296875 C-47.9583136 14.91480026 -48.7760022 15.03663177 -49.61846924 15.16215515 C-53.44696519 15.71443213 -57.1190359 16.15042874 -61 16 C-61.33 14.02 -61.66 12.04 -62 10 C-55.53869436 7.90201447 -48.9991502 7.0021126 -42.28515625 6.0546875 C-41.07427841 5.87994904 -39.86340057 5.70521057 -38.61582947 5.525177 C-34.76535498 4.97058389 -30.91396022 4.42270125 -27.0625 3.875 C-24.44459782 3.49914092 -21.82675849 3.12284374 -19.20898438 2.74609375 C-12.80670909 1.82565264 -6.40366599 0.91071254 0 0 Z " fill="#82B0DC" transform="translate(78,32)"/>
</svg>